<svg id="svg" version="1.1" xmlns="http://www.w3.org/2000/svg"
    xmlns:xlink="http://www.w3.org/1999/xlink" width="400" height="400" viewBox="0, 0, 400,400">
    <g id="svgg">
        <path id="path0"
            d="M98.583 4.373 C 98.698 4.558,98.519 4.935,98.186 5.211 C 97.676 5.635,97.620 5.595,97.823 4.957 C 98.051 4.244,98.032 4.240,97.489 4.900 C 97.090 5.383,96.337 5.600,95.056 5.600 C 93.467 5.600,93.200 5.715,93.200 6.400 C 93.200 7.070,92.933 7.200,91.557 7.200 C 90.219 7.200,89.960 7.318,90.159 7.837 C 90.321 8.260,90.138 8.543,89.615 8.680 C 89.181 8.794,88.718 9.227,88.586 9.644 C 88.454 10.060,87.998 10.587,87.573 10.814 C 87.071 11.083,86.800 11.652,86.800 12.438 C 86.800 13.142,86.633 13.544,86.400 13.400 C 86.180 13.264,86.000 13.354,86.000 13.600 C 86.000 13.846,85.808 13.929,85.573 13.783 C 85.339 13.638,85.180 13.763,85.221 14.060 C 85.839 18.561,85.098 52.502,84.377 52.690 C 83.889 52.818,83.640 53.128,83.765 53.453 C 83.880 53.754,83.801 54.000,83.587 54.000 C 83.374 54.000,83.221 54.135,83.247 54.300 C 83.367 55.056,83.156 55.350,82.846 54.860 C 82.606 54.482,82.423 54.751,82.234 55.760 C 82.033 56.830,81.763 57.200,81.182 57.200 C 80.734 57.200,80.400 57.472,80.400 57.836 C 80.400 58.186,79.995 58.829,79.500 59.266 C 79.005 59.703,78.825 59.947,79.100 59.807 C 79.375 59.667,79.600 59.658,79.600 59.786 C 79.600 59.915,79.150 60.191,78.600 60.400 C 78.050 60.609,77.614 61.010,77.632 61.290 C 77.656 61.691,77.706 61.693,77.865 61.300 C 77.976 61.025,78.226 60.800,78.421 60.800 C 78.616 60.800,78.671 61.070,78.545 61.400 C 78.418 61.730,78.084 62.000,77.802 62.000 C 77.520 62.000,77.314 62.315,77.344 62.700 C 77.381 63.160,77.160 63.360,76.700 63.282 C 76.180 63.195,76.000 63.437,76.000 64.225 C 76.000 64.984,75.836 65.223,75.424 65.065 C 75.032 64.914,74.703 65.282,74.395 66.216 C 74.146 66.971,73.744 67.711,73.503 67.860 C 73.219 68.036,73.157 67.890,73.327 67.445 C 73.484 67.037,73.430 66.858,73.195 67.003 C 72.978 67.137,72.800 67.777,72.800 68.424 C 72.800 69.213,72.599 69.600,72.187 69.600 C 71.851 69.600,71.465 69.915,71.330 70.300 C 71.195 70.685,70.436 71.612,69.642 72.359 C 68.784 73.167,68.507 73.609,68.957 73.450 C 69.596 73.223,69.635 73.275,69.211 73.786 C 68.935 74.119,68.550 74.293,68.355 74.172 C 68.160 74.051,68.000 74.392,68.000 74.930 C 68.000 75.570,67.725 75.979,67.200 76.116 C 66.760 76.231,66.400 76.591,66.400 76.916 C 66.400 77.241,66.022 77.606,65.560 77.726 C 65.098 77.847,64.806 78.093,64.913 78.273 C 65.264 78.867,64.438 80.400,63.766 80.400 C 63.313 80.400,63.169 80.640,63.308 81.168 C 63.455 81.733,63.252 82.001,62.538 82.180 C 62.004 82.314,61.672 82.592,61.799 82.799 C 61.927 83.005,61.664 83.403,61.216 83.683 C 60.767 83.963,60.400 84.413,60.400 84.682 C 60.400 84.951,60.040 85.365,59.600 85.600 C 59.160 85.835,58.800 86.212,58.800 86.438 C 58.800 86.663,58.963 86.746,59.163 86.623 C 59.362 86.500,59.317 86.848,59.063 87.396 C 58.808 87.945,58.285 88.395,57.900 88.397 C 57.515 88.399,57.221 88.535,57.247 88.700 C 57.387 89.584,57.116 90.000,56.400 90.000 C 55.903 90.000,55.600 90.267,55.600 90.704 C 55.600 91.091,55.253 91.625,54.828 91.890 C 54.403 92.155,53.998 92.873,53.928 93.486 C 53.857 94.105,53.581 94.557,53.307 94.502 C 53.036 94.449,52.702 94.852,52.564 95.400 C 52.427 95.947,52.154 96.295,51.957 96.174 C 51.761 96.052,51.600 96.154,51.600 96.400 C 51.600 96.646,51.392 96.719,51.138 96.562 C 50.853 96.386,50.785 96.452,50.960 96.735 C 51.299 97.284,50.681 98.529,50.164 98.336 C 49.964 98.261,49.628 98.785,49.417 99.500 C 49.207 100.215,48.821 100.800,48.561 100.800 C 48.300 100.800,47.963 101.295,47.812 101.900 C 47.661 102.505,47.268 103.299,46.939 103.665 C 46.315 104.357,46.082 105.145,46.031 106.743 C 46.010 107.390,45.820 107.617,45.427 107.466 C 45.066 107.327,44.857 107.497,44.863 107.923 C 44.868 108.295,44.855 170.505,44.834 246.167 C 44.799 372.570,44.849 383.791,45.446 384.451 C 45.803 384.845,46.140 385.694,46.195 386.337 C 46.309 387.683,46.722 388.496,47.155 388.228 C 47.320 388.126,47.676 388.653,47.946 389.400 C 48.216 390.147,48.765 390.862,49.165 390.989 C 49.566 391.116,50.216 391.576,50.609 392.010 C 51.002 392.445,51.675 392.800,52.105 392.800 C 52.646 392.800,52.813 392.990,52.647 393.421 C 52.511 393.777,52.578 393.937,52.805 393.797 C 53.022 393.663,53.200 393.743,53.200 393.976 C 53.200 394.209,53.335 394.379,53.500 394.353 C 54.614 394.177,58.113 394.468,57.744 394.706 C 57.414 394.919,57.442 395.142,57.844 395.516 C 58.150 395.799,58.400 395.849,58.400 395.626 C 58.400 395.355,58.742 395.350,59.426 395.610 C 60.834 396.145,339.166 396.145,340.574 395.610 C 341.258 395.350,341.600 395.355,341.600 395.626 C 341.600 395.849,341.850 395.799,342.156 395.516 C 342.558 395.142,342.586 394.919,342.256 394.706 C 341.887 394.468,345.386 394.177,346.500 394.353 C 346.665 394.379,346.800 394.209,346.800 393.976 C 346.800 393.743,346.978 393.663,347.195 393.797 C 347.422 393.937,347.489 393.777,347.353 393.421 C 347.187 392.990,347.354 392.800,347.895 392.800 C 348.325 392.800,348.998 392.445,349.391 392.010 C 349.784 391.576,350.434 391.116,350.835 390.989 C 351.235 390.862,351.784 390.147,352.054 389.400 C 352.324 388.653,352.680 388.126,352.845 388.228 C 353.278 388.496,353.691 387.683,353.805 386.337 C 353.860 385.694,354.198 384.845,354.555 384.449 C 355.387 383.530,355.543 106.941,354.711 107.455 C 354.354 107.676,354.112 107.127,353.829 105.451 C 353.722 104.819,353.385 104.009,353.078 103.651 C 352.451 102.918,351.841 101.553,351.936 101.100 C 351.971 100.935,351.730 100.800,351.400 100.800 C 351.070 100.800,350.800 100.506,350.800 100.146 C 350.800 99.786,350.352 99.076,349.804 98.569 C 349.145 97.958,348.897 97.412,349.072 96.957 C 349.251 96.490,349.186 96.362,348.868 96.558 C 348.611 96.717,348.400 96.646,348.400 96.400 C 348.400 96.154,348.239 96.052,348.043 96.174 C 347.846 96.295,347.571 95.938,347.431 95.381 C 347.291 94.823,347.011 94.470,346.808 94.595 C 346.399 94.848,345.461 93.352,345.740 92.892 C 345.837 92.731,345.678 92.380,345.387 92.112 C 344.971 91.727,344.817 91.727,344.661 92.112 C 344.552 92.380,344.449 92.004,344.432 91.276 C 344.414 90.548,344.235 90.055,344.032 90.180 C 343.553 90.476,342.324 89.247,342.620 88.768 C 342.745 88.565,342.522 88.399,342.124 88.397 C 341.726 88.395,341.192 87.945,340.938 87.397 C 340.683 86.849,340.630 86.400,340.819 86.400 C 341.009 86.400,340.712 85.948,340.160 85.397 C 339.608 84.845,339.266 84.217,339.399 84.001 C 339.537 83.778,339.374 83.712,339.021 83.847 C 338.468 84.059,338.214 83.638,338.345 82.724 C 338.366 82.573,338.027 82.336,337.592 82.197 C 336.873 81.969,336.623 81.523,336.753 80.700 C 336.779 80.535,336.665 80.421,336.500 80.447 C 335.546 80.598,335.200 80.273,335.200 79.227 C 335.200 78.405,334.960 77.978,334.400 77.800 C 333.960 77.660,333.600 77.271,333.600 76.936 C 333.600 76.600,333.240 76.231,332.800 76.116 C 332.296 75.984,332.000 75.570,332.000 74.998 C 332.000 74.400,331.776 74.108,331.345 74.144 C 330.910 74.181,330.542 73.686,330.245 72.664 C 330.000 71.819,329.670 71.259,329.511 71.419 C 329.352 71.580,329.042 71.236,328.821 70.655 C 328.600 70.075,328.145 69.600,327.810 69.600 C 327.467 69.600,327.200 69.250,327.200 68.800 C 327.200 68.360,326.933 68.000,326.608 68.000 C 326.282 68.000,325.907 67.505,325.774 66.900 C 325.354 64.984,325.244 64.808,324.615 65.050 C 324.157 65.225,324.000 65.015,324.000 64.225 C 324.000 63.437,323.820 63.195,323.300 63.282 C 322.892 63.351,322.600 63.150,322.600 62.800 C 322.600 62.470,322.276 61.930,321.879 61.599 C 321.259 61.083,320.960 60.371,320.831 59.100 C 320.814 58.935,320.530 58.800,320.200 58.800 C 319.867 58.800,319.600 58.444,319.600 58.000 C 319.600 57.482,319.333 57.200,318.843 57.200 C 318.363 57.200,317.992 56.822,317.827 56.164 C 317.660 55.499,317.367 55.204,317.011 55.341 C 316.629 55.487,316.502 55.310,316.604 54.777 C 316.687 54.350,316.590 54.000,316.390 54.000 C 316.189 54.000,316.120 53.754,316.235 53.453 C 316.360 53.128,316.111 52.818,315.623 52.690 C 314.902 52.502,314.161 18.561,314.779 14.060 C 314.820 13.763,314.661 13.638,314.427 13.783 C 314.192 13.929,314.000 13.846,314.000 13.600 C 314.000 13.354,313.820 13.264,313.600 13.400 C 313.367 13.544,313.200 13.142,313.200 12.438 C 313.200 11.652,312.929 11.083,312.427 10.814 C 312.002 10.587,311.546 10.060,311.414 9.644 C 311.282 9.227,310.819 8.794,310.385 8.680 C 309.845 8.539,309.677 8.264,309.853 7.807 C 310.021 7.369,309.918 7.167,309.554 7.217 C 307.790 7.464,306.800 7.170,306.800 6.400 C 306.800 5.677,306.533 5.600,304.023 5.600 C 301.483 5.600,301.259 5.533,301.396 4.818 C 301.545 4.047,301.007 4.036,260.944 4.009 C 236.404 3.993,220.431 4.127,220.569 4.349 C 220.693 4.551,220.517 4.823,220.177 4.954 C 219.823 5.089,219.663 5.022,219.803 4.795 C 220.115 4.290,219.577 4.296,218.800 4.806 C 218.299 5.135,218.349 5.241,219.100 5.447 C 219.595 5.582,220.037 5.717,220.082 5.747 C 220.127 5.776,220.262 16.798,220.382 30.239 C 220.551 49.233,220.714 54.815,221.111 55.294 C 221.393 55.632,221.881 57.145,222.196 58.655 C 222.511 60.165,223.044 62.480,223.380 63.800 C 225.067 70.425,225.118 71.079,224.163 73.996 C 223.345 76.498,220.534 79.405,218.267 80.094 C 215.889 80.816,184.111 80.816,181.733 80.094 C 177.265 78.736,174.135 72.497,175.580 67.828 C 176.078 66.221,177.076 62.094,177.800 58.655 C 178.117 57.145,178.607 55.632,178.889 55.294 C 179.286 54.815,179.449 49.233,179.618 30.239 C 179.738 16.798,179.873 5.776,179.918 5.747 C 179.963 5.717,180.405 5.582,180.900 5.447 C 181.651 5.241,181.701 5.135,181.200 4.806 C 180.423 4.296,179.885 4.290,180.197 4.795 C 180.337 5.022,180.177 5.089,179.823 4.954 C 179.483 4.823,179.307 4.551,179.431 4.349 C 179.569 4.127,163.581 3.993,139.017 4.009 C 116.664 4.024,98.469 4.188,98.583 4.373 M215.600 147.170 C 216.590 147.407,218.930 147.864,220.800 148.185 C 226.166 149.108,235.877 151.978,239.860 153.818 C 240.554 154.138,241.237 154.400,241.379 154.400 C 242.138 154.400,253.950 160.565,256.520 162.302 C 257.576 163.016,258.524 163.600,258.626 163.600 C 258.729 163.600,259.935 164.409,261.306 165.398 C 262.678 166.386,264.241 167.511,264.780 167.898 C 270.530 172.018,280.307 181.811,285.448 188.600 C 287.281 191.020,290.156 195.182,290.837 196.400 C 291.267 197.170,292.060 198.520,292.599 199.400 C 297.830 207.940,303.684 223.365,305.200 232.600 C 305.417 233.920,305.771 235.861,305.988 236.914 C 307.405 243.809,307.279 263.290,305.767 271.000 C 304.610 276.905,303.173 282.945,302.391 285.200 C 299.758 292.785,299.001 294.701,296.862 299.193 C 288.857 316.005,271.462 336.173,259.600 342.395 C 259.050 342.684,258.510 343.048,258.400 343.204 C 258.290 343.360,257.660 343.789,257.000 344.156 C 256.340 344.524,255.260 345.172,254.600 345.597 C 249.298 349.013,234.992 355.100,228.800 356.575 C 227.590 356.864,226.150 357.280,225.600 357.500 C 225.050 357.720,223.610 358.035,222.400 358.200 C 221.190 358.365,219.767 358.663,219.238 358.863 C 214.161 360.784,190.496 360.876,182.000 359.007 C 180.570 358.692,178.680 358.324,177.800 358.188 C 167.223 356.553,151.257 349.677,139.052 341.501 C 138.193 340.925,133.233 337.198,132.530 336.600 C 132.272 336.380,131.194 335.480,130.135 334.600 C 121.955 327.800,112.727 316.565,106.904 306.316 C 100.227 294.562,97.179 286.066,94.235 271.000 C 92.627 262.778,92.598 242.131,94.185 235.866 C 94.472 234.730,94.830 232.900,94.980 231.800 C 95.250 229.812,95.582 228.510,97.481 222.000 C 99.274 215.854,104.256 204.451,107.295 199.537 C 107.793 198.733,108.784 197.113,109.498 195.937 C 117.433 182.868,133.142 167.803,146.600 160.356 C 148.825 159.124,158.361 154.400,158.621 154.400 C 158.763 154.400,159.446 154.138,160.140 153.818 C 162.482 152.736,166.528 151.388,171.000 150.199 C 172.320 149.848,174.210 149.313,175.200 149.010 C 176.190 148.707,177.900 148.347,179.000 148.210 C 180.100 148.073,181.720 147.779,182.600 147.557 C 187.101 146.419,211.274 146.136,215.600 147.170 M266.985 200.349 C 267.713 200.505,268.523 201.126,269.085 201.960 C 269.588 202.707,270.000 203.125,270.000 202.890 C 270.000 201.892,267.914 200.001,266.864 200.047 C 265.812 200.094,265.813 200.098,266.985 200.349 M264.087 201.500 C 263.130 202.435,263.114 202.481,263.981 201.806 C 265.688 200.476,265.769 200.400,265.486 200.400 C 265.336 200.400,264.706 200.895,264.087 201.500 M235.200 215.000 C 234.430 215.297,234.070 215.545,234.400 215.552 C 234.730 215.558,235.540 215.317,236.200 215.014 C 237.745 214.307,237.026 214.297,235.200 215.000 M272.093 217.200 C 272.093 217.970,272.175 218.285,272.276 217.900 C 272.376 217.515,272.376 216.885,272.276 216.500 C 272.175 216.115,272.093 216.430,272.093 217.200 M138.400 221.554 C 139.390 222.463,140.560 223.406,141.000 223.652 C 141.440 223.897,141.004 223.401,140.031 222.549 C 137.528 220.357,136.236 219.569,138.400 221.554 M130.650 223.650 C 130.317 225.317,130.640 225.640,131.000 224.000 C 131.152 223.309,131.193 222.659,131.091 222.558 C 130.989 222.456,130.791 222.947,130.650 223.650 M272.909 224.000 C 272.909 224.990,272.987 225.395,273.082 224.900 C 273.178 224.405,273.178 223.595,273.082 223.100 C 272.987 222.605,272.909 223.010,272.909 224.000 M146.186 227.178 C 146.454 227.611,150.833 230.100,151.012 229.921 C 151.085 229.849,149.980 229.124,148.558 228.311 C 147.136 227.498,146.069 226.988,146.186 227.178 M194.387 237.021 C 193.904 237.803,193.577 238.511,193.661 238.594 C 193.745 238.678,194.220 238.038,194.718 237.173 C 195.847 235.213,195.580 235.090,194.387 237.021 M128.101 238.600 C 128.105 239.480,128.187 239.793,128.283 239.295 C 128.379 238.798,128.375 238.078,128.275 237.695 C 128.175 237.313,128.096 237.720,128.101 238.600 M177.000 238.614 C 177.660 238.917,178.470 239.158,178.800 239.152 C 179.130 239.145,178.770 238.897,178.000 238.600 C 176.174 237.897,175.455 237.907,177.000 238.614 M272.909 239.600 C 272.909 240.590,272.987 240.995,273.082 240.500 C 273.178 240.005,273.178 239.195,273.082 238.700 C 272.987 238.205,272.909 238.610,272.909 239.600 M127.701 242.600 C 127.705 243.480,127.787 243.793,127.883 243.295 C 127.979 242.798,127.975 242.078,127.875 241.695 C 127.775 241.313,127.696 241.720,127.701 242.600 M127.301 245.800 C 127.305 246.680,127.387 246.993,127.483 246.495 C 127.579 245.998,127.575 245.278,127.475 244.895 C 127.375 244.513,127.296 244.920,127.301 245.800 M126.934 251.200 C 126.934 252.850,127.005 253.525,127.091 252.700 C 127.178 251.875,127.178 250.525,127.091 249.700 C 127.005 248.875,126.934 249.550,126.934 251.200 M269.265 257.017 C 268.595 258.488,268.723 258.802,269.447 257.465 C 269.786 256.840,269.988 256.254,269.896 256.163 C 269.805 256.071,269.521 256.456,269.265 257.017 M126.928 263.600 C 126.928 265.030,127.001 265.615,127.089 264.900 C 127.178 264.185,127.178 263.015,127.089 262.300 C 127.001 261.585,126.928 262.170,126.928 263.600 M265.400 265.600 C 265.059 266.260,264.869 266.800,264.979 266.800 C 265.089 266.800,265.459 266.260,265.800 265.600 C 266.141 264.940,266.331 264.400,266.221 264.400 C 266.111 264.400,265.741 264.940,265.400 265.600 M127.293 268.400 C 127.293 269.170,127.375 269.485,127.476 269.100 C 127.576 268.715,127.576 268.085,127.476 267.700 C 127.375 267.315,127.293 267.630,127.293 268.400 M127.693 271.200 C 127.693 271.970,127.775 272.285,127.876 271.900 C 127.976 271.515,127.976 270.885,127.876 270.500 C 127.775 270.115,127.693 270.430,127.693 271.200 M255.800 277.077 C 254.368 278.414,254.045 278.825,255.000 278.098 C 256.509 276.949,258.739 274.778,258.370 274.818 C 258.276 274.828,257.120 275.845,255.800 277.077 M128.856 278.800 C 128.856 279.130,129.011 279.760,129.200 280.200 C 129.417 280.704,129.544 280.778,129.544 280.400 C 129.544 280.070,129.389 279.440,129.200 279.000 C 128.983 278.496,128.856 278.422,128.856 278.800 M248.872 281.805 C 247.262 282.750,245.822 283.661,245.672 283.830 C 245.220 284.341,250.955 281.175,251.586 280.566 C 252.421 279.759,252.151 279.882,248.872 281.805 M231.358 288.166 C 231.238 288.478,231.217 289.243,231.310 289.866 C 231.456 290.841,231.489 290.795,231.540 289.533 C 231.573 288.727,231.825 287.976,232.100 287.865 C 232.492 287.707,232.489 287.656,232.087 287.632 C 231.806 287.614,231.477 287.855,231.358 288.166 M131.628 289.000 C 131.628 289.220,131.886 289.850,132.200 290.400 C 132.514 290.950,132.772 291.220,132.772 291.000 C 132.772 290.780,132.514 290.150,132.200 289.600 C 131.886 289.050,131.628 288.780,131.628 289.000 M140.796 305.194 C 141.490 306.071,142.267 306.918,142.523 307.076 C 142.778 307.234,142.293 306.516,141.445 305.481 C 140.597 304.447,139.820 303.600,139.718 303.600 C 139.616 303.600,140.101 304.318,140.796 305.194 M234.101 306.200 C 234.105 307.080,234.187 307.393,234.283 306.895 C 234.379 306.398,234.375 305.678,234.275 305.295 C 234.175 304.913,234.096 305.320,234.101 306.200 M146.524 311.077 C 146.860 311.621,150.000 314.155,150.000 313.882 C 150.000 313.780,149.153 313.003,148.119 312.155 C 147.084 311.307,146.366 310.822,146.524 311.077 M150.746 314.535 C 151.267 315.163,154.000 316.910,154.000 316.615 C 154.000 316.528,153.151 315.884,152.114 315.184 C 151.077 314.484,150.461 314.192,150.746 314.535 M233.494 316.103 L 232.788 317.400 233.594 316.456 C 234.280 315.652,234.646 314.794,234.300 314.803 C 234.245 314.804,233.882 315.389,233.494 316.103 M162.400 321.000 C 162.950 321.314,163.580 321.572,163.800 321.572 C 164.020 321.572,163.750 321.314,163.200 321.000 C 162.650 320.686,162.020 320.428,161.800 320.428 C 161.580 320.428,161.850 320.686,162.400 321.000 M219.000 322.400 C 217.981 322.838,219.032 322.838,220.400 322.400 C 221.204 322.143,221.243 322.077,220.600 322.068 C 220.160 322.062,219.440 322.211,219.000 322.400 M172.200 324.000 C 172.640 324.189,173.270 324.344,173.600 324.344 C 173.978 324.344,173.904 324.217,173.400 324.000 C 172.960 323.811,172.330 323.656,172.000 323.656 C 171.622 323.656,171.696 323.783,172.200 324.000 M210.800 324.000 C 210.008 324.254,209.967 324.320,210.600 324.320 C 211.040 324.320,211.850 324.176,212.400 324.000 C 213.192 323.746,213.233 323.680,212.600 323.680 C 212.160 323.680,211.350 323.824,210.800 324.000 M177.700 325.076 C 178.085 325.176,178.715 325.176,179.100 325.076 C 179.485 324.975,179.170 324.893,178.400 324.893 C 177.630 324.893,177.315 324.975,177.700 325.076 M203.500 325.082 C 203.995 325.178,204.805 325.178,205.300 325.082 C 205.795 324.987,205.390 324.909,204.400 324.909 C 203.410 324.909,203.005 324.987,203.500 325.082 M181.500 325.482 C 181.995 325.578,182.805 325.578,183.300 325.482 C 183.795 325.387,183.390 325.309,182.400 325.309 C 181.410 325.309,181.005 325.387,181.500 325.482 M198.905 325.487 C 199.514 325.579,200.414 325.577,200.905 325.482 C 201.397 325.387,200.900 325.311,199.800 325.314 C 198.700 325.317,198.297 325.395,198.905 325.487 M187.900 325.898 C 189.715 325.972,192.685 325.972,194.500 325.898 C 196.315 325.823,194.830 325.763,191.200 325.763 C 187.570 325.763,186.085 325.823,187.900 325.898 "
            stroke="none" fill="#deaf79" fill-rule="evenodd"></path>
        <path id="path1"
            d="M180.800 4.400 C 180.800 4.620,180.991 4.800,181.224 4.800 C 181.457 4.800,181.538 4.976,181.405 5.192 C 181.248 5.446,187.803 5.584,200.000 5.584 C 212.197 5.584,218.752 5.446,218.595 5.192 C 218.462 4.976,218.543 4.800,218.776 4.800 C 219.009 4.800,219.200 4.620,219.200 4.400 C 219.200 4.139,212.533 4.000,200.000 4.000 C 187.467 4.000,180.800 4.139,180.800 4.400 M179.918 5.700 C 179.873 5.755,179.738 16.798,179.618 30.239 C 179.449 49.233,179.286 54.815,178.889 55.294 C 178.607 55.632,178.117 57.145,177.800 58.655 C 177.076 62.094,176.078 66.221,175.580 67.828 C 174.135 72.497,177.265 78.736,181.733 80.094 C 184.111 80.816,215.889 80.816,218.267 80.094 C 220.534 79.405,223.345 76.498,224.163 73.996 C 225.118 71.079,225.067 70.425,223.380 63.800 C 223.044 62.480,222.511 60.165,222.196 58.655 C 221.881 57.145,221.393 55.632,221.111 55.294 C 220.714 54.815,220.551 49.233,220.382 30.239 C 220.262 16.798,220.127 5.755,220.082 5.700 C 220.037 5.645,219.865 5.600,219.700 5.600 C 219.319 5.600,219.701 53.648,220.087 54.241 C 220.245 54.483,221.127 57.543,222.047 61.041 C 224.882 71.814,224.415 75.243,219.654 78.589 L 217.931 79.800 200.000 79.800 L 182.069 79.800 180.346 78.589 C 175.585 75.243,175.118 71.814,177.953 61.041 C 178.873 57.543,179.755 54.483,179.913 54.241 C 180.299 53.648,180.681 5.600,180.300 5.600 C 180.135 5.600,179.963 5.645,179.918 5.700 M321.144 60.678 C 321.654 61.650,322.400 62.249,322.400 61.686 C 322.400 61.487,322.014 60.981,321.542 60.562 C 320.690 59.805,320.687 59.806,321.144 60.678 M330.492 73.675 C 330.691 74.273,331.600 74.602,331.600 74.076 C 331.600 73.861,331.315 73.576,330.967 73.443 C 330.577 73.293,330.394 73.382,330.492 73.675 M335.200 79.643 C 335.200 79.953,335.560 80.432,336.000 80.707 C 336.440 80.982,336.800 81.143,336.800 81.065 C 336.800 80.986,336.440 80.507,336.000 80.000 C 335.480 79.400,335.200 79.275,335.200 79.643 M263.073 202.581 C 256.491 207.836,243.860 214.045,239.857 213.994 C 239.606 213.991,238.230 214.345,236.800 214.782 C 235.370 215.218,232.850 215.953,231.200 216.414 C 205.542 223.586,199.623 227.248,193.248 239.900 C 191.794 242.786,191.437 242.893,187.428 241.643 C 186.093 241.227,183.740 240.528,182.200 240.090 C 180.660 239.652,178.093 238.918,176.496 238.459 C 170.801 236.824,167.772 235.963,165.800 235.420 C 161.878 234.340,156.972 232.721,155.200 231.923 C 150.623 229.861,148.088 228.514,145.259 226.641 C 141.461 224.126,141.719 224.313,139.800 222.671 C 132.908 216.771,131.740 217.869,129.238 232.600 C 117.432 302.107,152.403 336.999,219.200 322.360 C 230.613 319.859,231.514 319.470,233.390 316.237 C 235.098 313.294,235.096 312.581,233.354 301.400 C 233.011 299.200,232.442 295.960,232.090 294.200 C 230.990 288.709,231.100 287.899,233.000 287.504 C 267.039 280.424,279.624 251.641,269.788 203.365 C 269.085 199.915,266.754 199.643,263.073 202.581 M243.294 242.417 C 247.209 245.644,244.935 251.821,239.529 252.644 C 238.578 252.789,237.350 253.148,236.800 253.442 C 236.250 253.736,235.043 254.167,234.117 254.399 C 233.191 254.632,232.326 254.997,232.193 255.211 C 232.061 255.425,231.648 255.602,231.276 255.604 C 230.904 255.606,229.700 256.050,228.600 256.591 C 227.500 257.132,226.434 257.581,226.231 257.587 C 226.029 257.594,225.579 257.838,225.231 258.128 C 223.476 259.597,221.470 259.665,220.408 258.292 C 219.858 257.581,219.001 256.587,218.504 256.082 C 218.007 255.577,217.600 254.992,217.600 254.782 C 217.600 254.572,217.452 254.400,217.272 254.400 C 216.655 254.400,214.400 252.130,214.400 251.509 C 214.400 250.878,222.706 246.538,225.700 245.605 C 226.525 245.348,227.200 244.992,227.200 244.813 C 227.200 244.635,227.875 244.366,228.700 244.215 C 229.525 244.064,230.560 243.711,231.000 243.429 C 231.440 243.148,232.631 242.794,233.646 242.642 C 234.661 242.491,235.831 242.110,236.246 241.796 C 237.716 240.683,241.607 241.026,243.294 242.417 "
            stroke="none" fill="#86b541" fill-rule="evenodd"></path>
        <path id="path2"
            d="M180.972 5.720 C 180.486 5.991,180.400 9.531,180.400 29.123 C 180.400 43.881,180.251 52.709,179.986 53.603 C 174.931 70.647,174.991 74.825,180.346 78.589 L 182.069 79.800 200.000 79.800 L 217.931 79.800 219.654 78.589 C 225.009 74.825,225.069 70.647,220.014 53.603 C 219.749 52.709,219.600 43.871,219.600 29.090 C 219.600 10.736,219.495 5.935,219.090 5.779 C 218.209 5.441,181.572 5.384,180.972 5.720 M236.246 241.796 C 235.831 242.110,234.661 242.491,233.646 242.642 C 232.631 242.794,231.440 243.148,231.000 243.429 C 230.560 243.711,229.525 244.064,228.700 244.215 C 227.875 244.366,227.200 244.635,227.200 244.813 C 227.200 244.992,226.525 245.348,225.700 245.605 C 222.706 246.538,214.400 250.878,214.400 251.509 C 214.400 252.130,216.655 254.400,217.272 254.400 C 217.452 254.400,217.600 254.572,217.600 254.782 C 217.600 254.992,218.007 255.577,218.504 256.082 C 219.001 256.587,219.858 257.581,220.408 258.292 C 221.470 259.665,223.476 259.597,225.231 258.128 C 225.579 257.838,226.029 257.594,226.231 257.587 C 226.434 257.581,227.500 257.132,228.600 256.591 C 229.700 256.050,230.904 255.606,231.276 255.604 C 231.648 255.602,232.061 255.425,232.193 255.211 C 232.326 254.997,233.191 254.632,234.117 254.399 C 235.043 254.167,236.250 253.736,236.800 253.442 C 237.350 253.148,238.578 252.789,239.529 252.644 C 247.224 251.473,247.116 241.172,239.409 241.213 C 237.959 241.220,236.700 241.453,236.246 241.796 "
            stroke="none" fill="#604b3f" fill-rule="evenodd"></path>
        <path id="path3"
            d="M193.400 147.618 C 187.915 148.059,179.593 149.175,178.857 149.570 C 178.495 149.763,177.300 150.045,176.200 150.197 C 174.349 150.452,170.668 151.446,167.800 152.466 C 167.140 152.701,165.880 153.113,165.000 153.381 C 164.120 153.649,162.731 154.168,161.913 154.534 C 161.095 154.900,160.297 155.200,160.139 155.200 C 159.582 155.200,150.144 159.809,147.400 161.422 C 146.520 161.939,145.530 162.497,145.200 162.662 C 144.870 162.826,143.970 163.378,143.200 163.888 C 142.430 164.398,141.463 165.036,141.051 165.307 C 130.360 172.339,114.418 188.578,111.137 195.779 C 110.881 196.341,110.538 196.800,110.375 196.800 C 110.212 196.800,109.874 197.295,109.623 197.900 C 109.373 198.505,108.727 199.720,108.187 200.600 C 107.647 201.480,106.937 202.773,106.609 203.473 C 106.281 204.173,105.843 204.850,105.637 204.977 C 105.430 205.105,105.146 205.735,105.005 206.377 C 104.864 207.019,104.490 207.759,104.174 208.021 C 103.858 208.283,103.600 208.771,103.600 209.105 C 103.600 209.439,103.262 210.452,102.848 211.356 C 100.387 216.735,98.669 221.788,97.393 227.400 C 97.093 228.720,96.652 230.430,96.414 231.200 C 92.869 242.638,93.679 267.708,98.049 281.828 C 98.462 283.164,98.806 284.514,98.814 284.828 C 98.821 285.143,99.175 286.120,99.600 287.000 C 100.025 287.880,100.379 288.916,100.386 289.301 C 100.394 289.687,100.760 290.675,101.200 291.496 C 101.640 292.316,102.000 293.210,102.000 293.482 C 102.000 293.753,102.340 294.656,102.755 295.488 C 108.207 306.405,108.226 306.441,109.902 308.920 C 110.616 309.976,111.200 310.924,111.200 311.026 C 111.200 311.129,111.965 312.273,112.900 313.569 C 113.835 314.866,114.870 316.332,115.200 316.829 C 115.530 317.326,116.081 318.028,116.424 318.390 C 116.768 318.752,117.308 319.418,117.624 319.869 C 120.173 323.500,129.700 333.027,133.331 335.576 C 133.782 335.892,134.464 336.432,134.847 336.776 C 135.705 337.546,136.106 337.844,138.609 339.579 C 139.704 340.338,140.690 341.079,140.800 341.225 C 140.910 341.372,142.051 342.101,143.336 342.846 C 144.620 343.591,146.330 344.585,147.136 345.057 C 148.916 346.098,155.921 349.608,158.400 350.700 C 159.390 351.137,160.857 351.788,161.660 352.147 C 162.464 352.506,163.364 352.801,163.660 352.802 C 163.957 352.804,164.688 353.060,165.285 353.371 C 165.882 353.682,167.364 354.143,168.578 354.395 C 169.792 354.648,170.879 355.005,170.993 355.189 C 171.108 355.374,172.146 355.652,173.300 355.807 C 174.455 355.962,175.957 356.318,176.637 356.598 C 177.318 356.878,179.028 357.234,180.437 357.388 C 181.847 357.543,184.260 357.962,185.800 358.320 C 189.189 359.108,211.429 359.247,213.251 358.492 C 213.829 358.253,216.169 357.843,218.451 357.582 C 220.733 357.321,222.780 356.964,223.000 356.789 C 223.220 356.615,224.120 356.352,225.000 356.205 C 226.970 355.877,232.950 354.114,234.660 353.358 C 235.354 353.051,236.164 352.794,236.460 352.786 C 236.757 352.779,237.720 352.425,238.600 352.000 C 239.480 351.575,240.343 351.221,240.518 351.214 C 240.961 351.195,251.075 346.177,252.863 345.090 C 253.667 344.600,255.365 343.595,256.636 342.855 C 257.907 342.115,259.173 341.305,259.450 341.055 C 259.726 340.805,260.607 340.150,261.407 339.600 C 268.301 334.861,278.763 325.016,282.376 319.869 C 282.692 319.418,283.232 318.752,283.576 318.390 C 283.919 318.028,284.470 317.326,284.800 316.829 C 285.130 316.332,286.165 314.866,287.100 313.569 C 288.035 312.273,288.800 311.129,288.800 311.026 C 288.800 310.924,289.384 309.976,290.098 308.920 C 291.774 306.441,291.793 306.405,297.245 295.488 C 297.660 294.656,298.000 293.753,298.000 293.482 C 298.000 293.210,298.360 292.316,298.800 291.496 C 299.240 290.675,299.606 289.687,299.614 289.301 C 299.621 288.916,299.975 287.880,300.400 287.000 C 300.825 286.120,301.179 285.086,301.186 284.702 C 301.194 284.317,301.533 282.967,301.940 281.702 C 306.301 268.131,307.132 242.643,303.586 231.200 C 303.348 230.430,302.907 228.720,302.607 227.400 C 301.201 221.218,299.482 216.333,296.059 208.800 C 295.609 207.810,295.043 206.550,294.800 206.000 C 294.557 205.450,293.925 204.280,293.396 203.400 C 292.866 202.520,292.156 201.260,291.817 200.600 C 291.479 199.940,290.847 198.860,290.413 198.200 C 289.979 197.540,289.321 196.460,288.951 195.800 C 283.921 186.835,269.692 172.373,258.949 165.307 C 258.537 165.036,257.570 164.398,256.800 163.888 C 256.030 163.378,255.130 162.826,254.800 162.662 C 254.470 162.497,253.480 161.939,252.600 161.422 C 249.674 159.702,240.411 155.200,239.800 155.200 C 239.609 155.200,238.721 154.862,237.826 154.448 C 235.928 153.571,232.871 152.519,230.600 151.962 C 229.720 151.746,228.280 151.317,227.400 151.009 C 226.520 150.701,224.900 150.330,223.800 150.185 C 222.700 150.040,221.505 149.763,221.143 149.570 C 220.382 149.162,212.096 148.078,206.000 147.588 C 201.201 147.202,198.500 147.209,193.400 147.618 M269.803 200.877 C 270.351 201.528,270.800 202.565,270.800 203.180 C 270.800 203.796,271.071 205.068,271.403 206.007 C 271.734 206.947,272.113 208.994,272.246 210.558 C 272.378 212.121,272.778 214.390,273.135 215.600 C 274.110 218.906,274.109 243.670,273.134 246.600 C 272.768 247.700,272.353 249.573,272.212 250.763 C 272.071 251.952,271.721 253.392,271.435 253.963 C 271.149 254.533,270.798 255.630,270.656 256.400 C 270.377 257.908,270.118 258.533,267.779 263.345 C 266.453 266.072,264.830 268.822,263.407 270.753 C 260.330 274.931,252.198 281.627,247.400 283.935 C 246.300 284.464,245.058 285.074,244.640 285.289 C 242.917 286.178,236.562 288.000,235.182 288.000 C 232.623 288.000,232.190 290.714,233.810 296.600 C 234.113 297.700,234.566 300.655,234.816 303.167 C 235.066 305.679,235.435 308.166,235.635 308.693 C 237.805 314.400,232.628 320.996,224.919 322.345 C 223.644 322.568,221.616 323.032,220.413 323.375 C 219.210 323.719,217.804 324.000,217.288 324.000 C 216.772 324.000,215.506 324.266,214.475 324.592 C 213.444 324.917,210.800 325.360,208.600 325.576 C 206.400 325.792,203.790 326.148,202.800 326.367 C 200.478 326.881,182.416 326.874,179.800 326.358 C 178.700 326.141,176.540 325.788,175.000 325.574 C 173.460 325.360,171.660 324.991,171.000 324.755 C 170.340 324.519,168.900 324.085,167.800 323.791 C 165.220 323.103,161.527 321.801,160.558 321.240 C 160.141 320.998,159.350 320.619,158.800 320.397 C 156.960 319.656,152.099 316.798,149.800 315.106 C 147.243 313.224,141.600 307.807,141.600 307.235 C 141.600 306.996,141.434 306.800,141.232 306.800 C 140.475 306.800,135.474 299.465,133.596 295.600 C 131.304 290.885,130.800 289.685,130.800 288.945 C 130.800 288.523,130.546 287.815,130.236 287.372 C 129.925 286.929,129.481 285.539,129.249 284.282 C 129.017 283.025,128.644 281.657,128.422 281.241 C 128.199 280.825,127.904 279.430,127.765 278.142 C 127.627 276.854,127.218 274.810,126.857 273.600 C 126.019 270.793,125.928 243.950,126.745 240.600 C 127.013 239.500,127.409 236.890,127.624 234.800 C 127.839 232.710,128.266 230.190,128.573 229.200 C 128.880 228.210,129.244 226.445,129.382 225.279 C 130.296 217.555,135.700 216.106,141.000 222.165 C 141.502 222.739,148.241 227.230,149.594 227.892 C 150.147 228.163,150.870 228.557,151.200 228.768 C 151.864 229.191,154.339 230.282,157.400 231.500 C 159.286 232.250,161.574 232.963,167.900 234.772 C 169.385 235.197,171.860 235.919,173.400 236.378 C 174.940 236.836,176.524 237.209,176.920 237.206 C 177.316 237.203,178.126 237.449,178.720 237.754 C 179.314 238.059,180.832 238.521,182.093 238.781 C 183.354 239.041,184.477 239.401,184.588 239.581 C 184.699 239.761,185.645 240.036,186.690 240.193 C 187.735 240.349,189.078 240.730,189.675 241.039 C 191.219 241.837,191.503 241.752,191.799 240.405 C 191.943 239.747,192.235 239.102,192.448 238.971 C 192.660 238.839,193.116 238.027,193.460 237.166 C 193.805 236.305,194.247 235.600,194.443 235.600 C 194.640 235.600,194.800 235.347,194.800 235.037 C 194.800 233.133,203.948 224.400,205.941 224.400 C 206.194 224.400,206.400 224.232,206.400 224.027 C 206.400 223.822,206.805 223.530,207.300 223.379 C 208.136 223.124,211.828 221.540,213.200 220.848 C 213.530 220.681,215.690 219.952,218.000 219.228 C 220.310 218.503,222.767 217.661,223.460 217.355 C 224.154 217.050,225.041 216.800,225.432 216.800 C 225.823 216.800,227.236 216.459,228.572 216.043 C 234.626 214.155,236.650 213.589,237.320 213.594 C 237.716 213.597,238.532 213.345,239.134 213.034 C 239.735 212.723,240.941 212.347,241.814 212.199 C 243.496 211.914,246.724 210.793,249.444 209.551 C 250.348 209.138,251.372 208.800,251.720 208.800 C 252.068 208.800,252.475 208.602,252.624 208.360 C 252.774 208.119,253.372 207.714,253.954 207.460 C 255.740 206.683,261.909 202.413,262.149 201.789 C 262.273 201.465,262.631 201.200,262.945 201.200 C 263.258 201.200,263.615 200.937,263.738 200.616 C 264.362 198.992,268.362 199.163,269.803 200.877 "
            stroke="none" fill="#d3e3e3" fill-rule="evenodd"></path>
        <path id="path4"
            d="M44.598 246.600 C 44.598 320.300,44.644 350.510,44.700 313.732 C 44.756 276.955,44.756 216.655,44.700 179.732 C 44.644 142.810,44.598 172.900,44.598 246.600 M355.398 246.600 C 355.398 320.300,355.444 350.510,355.500 313.732 C 355.556 276.955,355.556 216.655,355.500 179.732 C 355.444 142.810,355.398 172.900,355.398 246.600 M187.000 146.806 C 185.460 146.997,183.480 147.335,182.600 147.557 C 181.720 147.779,180.100 148.073,179.000 148.210 C 177.900 148.347,176.190 148.707,175.200 149.010 C 174.210 149.313,172.320 149.848,171.000 150.199 C 166.528 151.388,162.482 152.736,160.140 153.818 C 159.446 154.138,158.763 154.400,158.621 154.400 C 158.361 154.400,148.825 159.124,146.600 160.356 C 133.142 167.803,117.433 182.868,109.498 195.937 C 108.784 197.113,107.793 198.733,107.295 199.537 C 104.256 204.451,99.274 215.854,97.481 222.000 C 95.582 228.510,95.250 229.812,94.980 231.800 C 94.830 232.900,94.472 234.730,94.185 235.866 C 92.598 242.131,92.627 262.778,94.235 271.000 C 97.179 286.066,100.227 294.562,106.904 306.316 C 112.727 316.565,121.955 327.800,130.135 334.600 C 131.194 335.480,132.272 336.380,132.530 336.600 C 133.233 337.198,138.193 340.925,139.052 341.501 C 151.257 349.677,167.223 356.553,177.800 358.188 C 178.680 358.324,180.570 358.692,182.000 359.007 C 190.496 360.876,214.161 360.784,219.238 358.863 C 219.767 358.663,221.190 358.365,222.400 358.200 C 223.610 358.035,225.050 357.720,225.600 357.500 C 226.150 357.280,227.590 356.864,228.800 356.575 C 234.992 355.100,249.298 349.013,254.600 345.597 C 255.260 345.172,256.340 344.524,257.000 344.156 C 257.660 343.789,258.290 343.360,258.400 343.204 C 258.510 343.048,259.050 342.684,259.600 342.395 C 271.462 336.173,288.857 316.005,296.862 299.193 C 299.001 294.701,299.758 292.785,302.391 285.200 C 303.173 282.945,304.610 276.905,305.767 271.000 C 307.279 263.290,307.405 243.809,305.988 236.914 C 305.771 235.861,305.417 233.920,305.200 232.600 C 303.684 223.365,297.830 207.940,292.599 199.400 C 292.060 198.520,291.267 197.170,290.837 196.400 C 290.156 195.182,287.281 191.020,285.448 188.600 C 280.307 181.811,270.530 172.018,264.780 167.898 C 264.241 167.511,262.678 166.386,261.306 165.398 C 259.935 164.409,258.729 163.600,258.626 163.600 C 258.524 163.600,257.576 163.016,256.520 162.302 C 253.950 160.565,242.138 154.400,241.379 154.400 C 241.237 154.400,240.554 154.138,239.860 153.818 C 235.877 151.978,226.166 149.108,220.800 148.185 C 218.930 147.864,216.590 147.407,215.600 147.170 C 213.332 146.628,190.762 146.341,187.000 146.806 M206.000 147.588 C 212.096 148.078,220.382 149.162,221.143 149.570 C 221.505 149.763,222.700 150.040,223.800 150.185 C 224.900 150.330,226.520 150.701,227.400 151.009 C 228.280 151.317,229.720 151.746,230.600 151.962 C 232.871 152.519,235.928 153.571,237.826 154.448 C 238.721 154.862,239.609 155.200,239.800 155.200 C 240.411 155.200,249.674 159.702,252.600 161.422 C 253.480 161.939,254.470 162.497,254.800 162.662 C 255.130 162.826,256.030 163.378,256.800 163.888 C 257.570 164.398,258.537 165.036,258.949 165.307 C 269.692 172.373,283.921 186.835,288.951 195.800 C 289.321 196.460,289.979 197.540,290.413 198.200 C 290.847 198.860,291.479 199.940,291.817 200.600 C 292.156 201.260,292.866 202.520,293.396 203.400 C 293.925 204.280,294.557 205.450,294.800 206.000 C 295.043 206.550,295.609 207.810,296.059 208.800 C 299.482 216.333,301.201 221.218,302.607 227.400 C 302.907 228.720,303.348 230.430,303.586 231.200 C 307.132 242.643,306.301 268.131,301.940 281.702 C 301.533 282.967,301.194 284.317,301.186 284.702 C 301.179 285.086,300.825 286.120,300.400 287.000 C 299.975 287.880,299.621 288.916,299.614 289.301 C 299.606 289.687,299.240 290.675,298.800 291.496 C 298.360 292.316,298.000 293.210,298.000 293.482 C 298.000 293.753,297.660 294.656,297.245 295.488 C 291.793 306.405,291.774 306.441,290.098 308.920 C 289.384 309.976,288.800 310.924,288.800 311.026 C 288.800 311.129,288.035 312.273,287.100 313.569 C 286.165 314.866,285.130 316.332,284.800 316.829 C 284.470 317.326,283.919 318.028,283.576 318.390 C 283.232 318.752,282.692 319.418,282.376 319.869 C 278.763 325.016,268.301 334.861,261.407 339.600 C 260.607 340.150,259.726 340.805,259.450 341.055 C 259.173 341.305,257.907 342.115,256.636 342.855 C 255.365 343.595,253.667 344.600,252.863 345.090 C 251.075 346.177,240.961 351.195,240.518 351.214 C 240.343 351.221,239.480 351.575,238.600 352.000 C 237.720 352.425,236.757 352.779,236.460 352.786 C 236.164 352.794,235.354 353.051,234.660 353.358 C 232.950 354.114,226.970 355.877,225.000 356.205 C 224.120 356.352,223.220 356.615,223.000 356.789 C 222.780 356.964,220.733 357.321,218.451 357.582 C 216.169 357.843,213.829 358.253,213.251 358.492 C 211.429 359.247,189.189 359.108,185.800 358.320 C 184.260 357.962,181.847 357.543,180.437 357.388 C 179.028 357.234,177.318 356.878,176.637 356.598 C 175.957 356.318,174.455 355.962,173.300 355.807 C 172.146 355.652,171.108 355.374,170.993 355.189 C 170.879 355.005,169.792 354.648,168.578 354.395 C 167.364 354.143,165.882 353.682,165.285 353.371 C 164.688 353.060,163.957 352.804,163.660 352.802 C 163.364 352.801,162.464 352.506,161.660 352.147 C 160.857 351.788,159.390 351.137,158.400 350.700 C 155.921 349.608,148.916 346.098,147.136 345.057 C 146.330 344.585,144.620 343.591,143.336 342.846 C 142.051 342.101,140.910 341.372,140.800 341.225 C 140.690 341.079,139.704 340.338,138.609 339.579 C 136.106 337.844,135.705 337.546,134.847 336.776 C 134.464 336.432,133.782 335.892,133.331 335.576 C 129.700 333.027,120.173 323.500,117.624 319.869 C 117.308 319.418,116.768 318.752,116.424 318.390 C 116.081 318.028,115.530 317.326,115.200 316.829 C 114.870 316.332,113.835 314.866,112.900 313.569 C 111.965 312.273,111.200 311.129,111.200 311.026 C 111.200 310.924,110.616 309.976,109.902 308.920 C 108.226 306.441,108.207 306.405,102.755 295.488 C 102.340 294.656,102.000 293.753,102.000 293.482 C 102.000 293.210,101.640 292.316,101.200 291.496 C 100.760 290.675,100.394 289.687,100.386 289.301 C 100.379 288.916,100.025 287.880,99.600 287.000 C 99.175 286.120,98.821 285.143,98.814 284.828 C 98.806 284.514,98.462 283.164,98.049 281.828 C 93.679 267.708,92.869 242.638,96.414 231.200 C 96.652 230.430,97.093 228.720,97.393 227.400 C 98.669 221.788,100.387 216.735,102.848 211.356 C 103.262 210.452,103.600 209.439,103.600 209.105 C 103.600 208.771,103.858 208.283,104.174 208.021 C 104.490 207.759,104.864 207.019,105.005 206.377 C 105.146 205.735,105.430 205.105,105.637 204.977 C 105.843 204.850,106.281 204.173,106.609 203.473 C 106.937 202.773,107.647 201.480,108.187 200.600 C 108.727 199.720,109.373 198.505,109.623 197.900 C 109.874 197.295,110.212 196.800,110.375 196.800 C 110.538 196.800,110.881 196.341,111.137 195.779 C 114.418 188.578,130.360 172.339,141.051 165.307 C 141.463 165.036,142.430 164.398,143.200 163.888 C 143.970 163.378,144.870 162.826,145.200 162.662 C 145.530 162.497,146.520 161.939,147.400 161.422 C 150.144 159.809,159.582 155.200,160.139 155.200 C 160.297 155.200,161.095 154.900,161.913 154.534 C 162.731 154.168,164.120 153.649,165.000 153.381 C 165.880 153.113,167.140 152.701,167.800 152.466 C 170.668 151.446,174.349 150.452,176.200 150.197 C 177.300 150.045,178.495 149.763,178.857 149.570 C 179.593 149.175,187.915 148.059,193.400 147.618 C 198.500 147.209,201.201 147.202,206.000 147.588 M265.258 199.697 C 264.545 199.882,263.862 200.295,263.738 200.616 C 263.615 200.937,263.258 201.200,262.945 201.200 C 262.631 201.200,262.273 201.465,262.149 201.789 C 261.909 202.413,255.740 206.683,253.954 207.460 C 253.372 207.714,252.774 208.119,252.624 208.360 C 252.475 208.602,252.068 208.800,251.720 208.800 C 251.372 208.800,250.348 209.138,249.444 209.551 C 246.724 210.793,243.496 211.914,241.814 212.199 C 240.941 212.347,239.735 212.723,239.134 213.034 C 238.532 213.345,237.716 213.597,237.320 213.594 C 236.650 213.589,234.626 214.155,228.572 216.043 C 227.236 216.459,225.823 216.800,225.432 216.800 C 225.041 216.800,224.154 217.050,223.460 217.355 C 222.767 217.661,220.310 218.503,218.000 219.228 C 215.690 219.952,213.530 220.681,213.200 220.848 C 211.828 221.540,208.136 223.124,207.300 223.379 C 206.805 223.530,206.400 223.822,206.400 224.027 C 206.400 224.232,206.194 224.400,205.941 224.400 C 203.948 224.400,194.800 233.133,194.800 235.037 C 194.800 235.347,194.640 235.600,194.443 235.600 C 194.247 235.600,193.805 236.305,193.460 237.166 C 193.116 238.027,192.660 238.839,192.448 238.971 C 192.235 239.102,191.943 239.747,191.799 240.405 C 191.503 241.752,191.219 241.837,189.675 241.039 C 189.078 240.730,187.735 240.349,186.690 240.193 C 185.645 240.036,184.699 239.761,184.588 239.581 C 184.477 239.401,183.354 239.041,182.093 238.781 C 180.832 238.521,179.314 238.059,178.720 237.754 C 178.126 237.449,177.316 237.203,176.920 237.206 C 176.524 237.209,174.940 236.836,173.400 236.378 C 171.860 235.919,169.385 235.197,167.900 234.772 C 161.574 232.963,159.286 232.250,157.400 231.500 C 154.339 230.282,151.864 229.191,151.200 228.768 C 150.870 228.557,150.147 228.163,149.594 227.892 C 148.241 227.230,141.502 222.739,141.000 222.165 C 135.700 216.106,130.296 217.555,129.382 225.279 C 129.244 226.445,128.880 228.210,128.573 229.200 C 128.266 230.190,127.839 232.710,127.624 234.800 C 127.409 236.890,127.013 239.500,126.745 240.600 C 125.928 243.950,126.019 270.793,126.857 273.600 C 127.218 274.810,127.627 276.854,127.765 278.142 C 127.904 279.430,128.199 280.825,128.422 281.241 C 128.644 281.657,129.017 283.025,129.249 284.282 C 129.481 285.539,129.925 286.929,130.236 287.372 C 130.546 287.815,130.800 288.523,130.800 288.945 C 130.800 289.685,131.304 290.885,133.596 295.600 C 135.474 299.465,140.475 306.800,141.232 306.800 C 141.434 306.800,141.600 306.996,141.600 307.235 C 141.600 307.807,147.243 313.224,149.800 315.106 C 152.099 316.798,156.960 319.656,158.800 320.397 C 159.350 320.619,160.141 320.998,160.558 321.240 C 161.527 321.801,165.220 323.103,167.800 323.791 C 168.900 324.085,170.340 324.519,171.000 324.755 C 171.660 324.991,173.460 325.360,175.000 325.574 C 176.540 325.788,178.700 326.141,179.800 326.358 C 182.416 326.874,200.478 326.881,202.800 326.367 C 203.790 326.148,206.400 325.792,208.600 325.576 C 210.800 325.360,213.444 324.917,214.475 324.592 C 215.506 324.266,216.772 324.000,217.288 324.000 C 217.804 324.000,219.210 323.719,220.413 323.375 C 221.616 323.032,223.644 322.568,224.919 322.345 C 232.628 320.996,237.805 314.400,235.635 308.693 C 235.435 308.166,235.066 305.679,234.816 303.167 C 234.566 300.655,234.113 297.700,233.810 296.600 C 232.190 290.714,232.623 288.000,235.182 288.000 C 236.562 288.000,242.917 286.178,244.640 285.289 C 245.058 285.074,246.300 284.464,247.400 283.935 C 252.198 281.627,260.330 274.931,263.407 270.753 C 264.830 268.822,266.453 266.072,267.779 263.345 C 270.118 258.533,270.377 257.908,270.656 256.400 C 270.798 255.630,271.149 254.533,271.435 253.963 C 271.721 253.392,272.071 251.952,272.212 250.763 C 272.353 249.573,272.768 247.700,273.134 246.600 C 274.109 243.670,274.110 218.906,273.135 215.600 C 272.778 214.390,272.378 212.121,272.246 210.558 C 272.113 208.994,271.734 206.947,271.403 206.007 C 271.071 205.068,270.800 203.796,270.800 203.180 C 270.800 200.670,268.086 198.964,265.258 199.697 M268.885 201.136 C 272.813 205.805,274.470 235.154,271.622 249.600 C 267.727 269.350,252.956 284.436,234.600 287.411 C 230.981 287.997,231.128 286.828,233.141 299.000 C 235.227 311.614,235.228 311.620,234.635 313.869 C 233.184 319.369,230.711 320.511,212.800 323.953 C 154.370 335.183,120.994 303.348,127.592 242.681 C 129.903 221.436,132.148 216.397,137.470 220.510 C 148.903 229.344,153.744 231.837,166.000 235.201 C 167.650 235.654,170.170 236.359,171.600 236.767 C 173.030 237.176,175.640 237.915,177.400 238.411 C 180.836 239.378,183.713 240.225,188.272 241.610 C 191.650 242.636,191.685 242.622,193.066 239.677 C 198.245 228.631,205.485 223.685,224.800 217.997 C 226.450 217.512,228.880 216.796,230.200 216.406 C 231.520 216.017,234.040 215.303,235.800 214.819 C 245.799 212.072,248.231 211.246,252.507 209.146 C 256.024 207.419,259.659 205.063,262.600 202.605 C 266.193 199.601,267.364 199.328,268.885 201.136 "
            stroke="none" fill="#dcd4bf" fill-rule="evenodd"></path>
    </g>
</svg>